<svg width="196" height="210" viewBox="0 0 196 210" fill="none" xmlns="http://www.w3.org/2000/svg">
<g clip-path="url(#clip0_20_216)">
<g filter="url(#filter0_d_20_216)">
<path fill-rule="evenodd" clip-rule="evenodd" d="M66.0616 18H50.3425V35.5685H52.2496V65.4083L30 74.6113V94.7466V135.944V186.162L62.363 191.182L94.726 186.162V135.944V94.7466V74.6113L72.4765 65.4083V35.5685H74.3836V18H66.0616ZM142.75 65.4083V35.5685H144.658V18H136.336H120.616V18.9247V32.7945V35.5685H122.524V65.4083L100.274 74.6113V94.7466V135.944V186.162L132.637 191.182L165 186.162V135.944V94.7466V74.6113L142.75 65.4083Z" fill="#E0DEDE"/>
<path d="M50.3425 18V10.5H42.8425V18H50.3425ZM50.3425 35.5685H42.8425V43.0685H50.3425V35.5685ZM52.2496 35.5685H59.7496V28.0685H52.2496V35.5685ZM52.2496 65.4083L55.1162 72.3389L59.7496 70.4224V65.4083H52.2496ZM30 74.6113L27.1334 67.6807L22.5 69.5972V74.6113H30ZM30 186.162H22.5V192.588L28.8504 193.573L30 186.162ZM62.363 191.182L61.2134 198.593L62.363 198.772L63.5126 198.593L62.363 191.182ZM94.726 186.162L95.8756 193.573L102.226 192.588V186.162H94.726ZM94.726 74.6113H102.226V69.5972L97.5927 67.6807L94.726 74.6113ZM72.4765 65.4083H64.9765V70.4224L69.6098 72.3389L72.4765 65.4083ZM72.4765 35.5685V28.0685H64.9765V35.5685H72.4765ZM74.3836 35.5685V43.0685H81.8836V35.5685H74.3836ZM74.3836 18H81.8836V10.5H74.3836V18ZM142.75 35.5685V28.0685H135.25V35.5685H142.75ZM142.75 65.4083H135.25V70.4224L139.884 72.3389L142.75 65.4083ZM144.658 35.5685V43.0685H152.158V35.5685H144.658ZM144.658 18H152.158V10.5H144.658V18ZM120.616 18V10.5H113.116V18H120.616ZM120.616 35.5685H113.116V43.0685H120.616V35.5685ZM122.524 35.5685H130.024V28.0685H122.524V35.5685ZM122.524 65.4083L125.39 72.3389L130.024 70.4224V65.4083H122.524ZM100.274 74.6113L97.4073 67.6807L92.774 69.5972V74.6113H100.274ZM100.274 186.162H92.774V192.588L99.1244 193.573L100.274 186.162ZM132.637 191.182L131.487 198.593L132.637 198.772L133.787 198.593L132.637 191.182ZM165 186.162L166.15 193.573L172.5 192.588V186.162H165ZM165 74.6113H172.5V69.5972L167.867 67.6807L165 74.6113ZM50.3425 25.5H66.0616V10.5H50.3425V25.5ZM57.8425 35.5685V18H42.8425V35.5685H57.8425ZM52.2496 28.0685H50.3425V43.0685H52.2496V28.0685ZM59.7496 65.4083V35.5685H44.7496V65.4083H59.7496ZM32.8666 81.5418L55.1162 72.3389L49.3829 58.4778L27.1334 67.6807L32.8666 81.5418ZM37.5 94.7466V74.6113H22.5V94.7466H37.5ZM37.5 135.944V94.7466H22.5V135.944H37.5ZM37.5 186.162V135.944H22.5V186.162H37.5ZM63.5126 183.77L31.1496 178.751L28.8504 193.573L61.2134 198.593L63.5126 183.77ZM93.5765 178.751L61.2134 183.77L63.5126 198.593L95.8756 193.573L93.5765 178.751ZM87.226 135.944V186.162H102.226V135.944H87.226ZM87.226 94.7466V135.944H102.226V94.7466H87.226ZM87.226 74.6113V94.7466H102.226V74.6113H87.226ZM69.6098 72.3389L91.8594 81.5418L97.5927 67.6807L75.3431 58.4778L69.6098 72.3389ZM64.9765 35.5685V65.4083H79.9765V35.5685H64.9765ZM74.3836 28.0685H72.4765V43.0685H74.3836V28.0685ZM66.8836 18V35.5685H81.8836V18H66.8836ZM66.0616 25.5H74.3836V10.5H66.0616V25.5ZM135.25 35.5685V65.4083H150.25V35.5685H135.25ZM144.658 28.0685H142.75V43.0685H144.658V28.0685ZM137.158 18V35.5685H152.158V18H137.158ZM136.336 25.5H144.658V10.5H136.336V25.5ZM120.616 25.5H136.336V10.5H120.616V25.5ZM128.116 18.9247V18H113.116V18.9247H128.116ZM128.116 32.7945V18.9247H113.116V32.7945H128.116ZM128.116 35.5685V32.7945H113.116V35.5685H128.116ZM122.524 28.0685H120.616V43.0685H122.524V28.0685ZM130.024 65.4083V35.5685H115.024V65.4083H130.024ZM103.141 81.5418L125.39 72.3389L119.657 58.4778L97.4073 67.6807L103.141 81.5418ZM107.774 94.7466V74.6113H92.774V94.7466H107.774ZM107.774 135.944V94.7466H92.774V135.944H107.774ZM107.774 186.162V135.944H92.774V186.162H107.774ZM133.787 183.77L101.424 178.751L99.1244 193.573L131.487 198.593L133.787 183.77ZM163.85 178.751L131.487 183.77L133.787 198.593L166.15 193.573L163.85 178.751ZM157.5 135.944V186.162H172.5V135.944H157.5ZM157.5 94.7466V135.944H172.5V94.7466H157.5ZM157.5 74.6113V94.7466H172.5V74.6113H157.5ZM139.884 72.3389L162.133 81.5418L167.867 67.6807L145.617 58.4778L139.884 72.3389Z" fill="white"/>
</g>
<path fill-rule="evenodd" clip-rule="evenodd" d="M72.4765 35.5685H52.2496V65.4083L30 74.6113V186.162L62.363 191.182L94.726 186.162V74.6113L72.4765 65.4083V35.5685Z" fill="#0AA03E"/>
<rect x="50.3424" y="18" width="24.0411" height="17.5685" fill="#185521"/>
<path fill-rule="evenodd" clip-rule="evenodd" d="M62.363 191.182L94.7261 186.162V74.6113L72.4765 65.4083V35.5685H62.363V191.182Z" fill="#108B3A"/>
<rect x="66.0616" y="18" width="8.32192" height="17.5685" fill="#0A3F11"/>
<rect x="51.2671" y="18.9247" width="2.77397" height="13.8699" fill="#336B3B"/>
<path d="M30 94.7466L62.363 98.8663L94.726 94.7466V135.944L62.363 140.979L30 135.944V94.7466Z" fill="#ECECEC"/>
<path d="M62.363 98.8663L94.7261 94.7466V135.944L62.363 140.979V98.8663Z" fill="#E0DEDE"/>
<path fill-rule="evenodd" clip-rule="evenodd" d="M142.75 35.5685H122.523V65.4083L100.274 74.6113V186.162L132.637 191.182L165 186.162V74.6113L142.75 65.4083V35.5685Z" fill="#0AA03E"/>
<rect x="120.616" y="18" width="24.0411" height="17.5685" fill="#185521"/>
<path fill-rule="evenodd" clip-rule="evenodd" d="M132.637 191.182L165 186.162V74.6113L142.75 65.4083V35.5685H132.637L132.637 191.182Z" fill="#108B3A"/>
<rect x="136.336" y="18" width="8.32192" height="17.5685" fill="#0A3F11"/>
<rect x="120.616" y="18.9247" width="2.77397" height="13.8699" fill="#336B3B"/>
<path d="M100.274 94.7466L132.637 98.8663L165 94.7466V135.944L132.637 140.979L100.274 135.944V94.7466Z" fill="#ECECEC"/>
<path d="M132.637 98.8663L165 94.7466V135.944L132.637 140.979V98.8663Z" fill="#E0DEDE"/>
</g>
<defs>
<filter id="filter0_d_20_216" x="11.5" y="2.5" width="174" height="212.272" filterUnits="userSpaceOnUse" color-interpolation-filters="sRGB">
<feFlood flood-opacity="0" result="BackgroundImageFix"/>
<feColorMatrix in="SourceAlpha" type="matrix" values="0 0 0 0 0 0 0 0 0 0 0 0 0 0 0 0 0 0 127 0" result="hardAlpha"/>
<feOffset dx="1" dy="4"/>
<feGaussianBlur stdDeviation="6"/>
<feComposite in2="hardAlpha" operator="out"/>
<feColorMatrix type="matrix" values="0 0 0 0 0 0 0 0 0 0 0 0 0 0 0 0 0 0 0.25 0"/>
<feBlend mode="normal" in2="BackgroundImageFix" result="effect1_dropShadow_20_216"/>
<feBlend mode="normal" in="SourceGraphic" in2="effect1_dropShadow_20_216" result="shape"/>
</filter>
<clipPath id="clip0_20_216">
<rect width="196" height="210" fill="white"/>
</clipPath>
</defs>
</svg>
