<svg width="196" height="210" viewBox="0 0 196 210" fill="none" xmlns="http://www.w3.org/2000/svg">
<g clip-path="url(#clip0_20_487)">
<g filter="url(#filter0_d_20_487)">
<path d="M59.1456 33.3884V57.5049H98L59.1456 33.3884Z" fill="#46B157" stroke="#FF002E" stroke-width="15"/>
<path d="M133.505 33.3884V57.5049H94.6505L133.505 33.3884Z" fill="#46B157" stroke="#FF002E" stroke-width="15"/>
<path d="M114.748 57.5049H80.5825L98 22L114.748 57.5049Z" fill="#518158" stroke="#FF002E" stroke-width="15"/>
<path fill-rule="evenodd" clip-rule="evenodd" d="M97.3301 57.5049H154.44L167 116.808L118.487 187.466H97.3301V57.5049Z" fill="#C73939"/>
<path d="M154.44 57.5049L161.777 55.9508L160.518 50.0049H154.44V57.5049ZM97.3301 57.5049V50.0049H89.8301V57.5049H97.3301ZM167 116.808L173.183 121.053L175.004 118.401L174.337 115.254L167 116.808ZM118.487 187.466V194.966H122.436L124.67 191.711L118.487 187.466ZM97.3301 187.466H89.8301V194.966H97.3301V187.466ZM154.44 50.0049H97.3301V65.0049H154.44V50.0049ZM174.337 115.254L161.777 55.9508L147.102 59.0589L159.663 118.362L174.337 115.254ZM124.67 191.711L173.183 121.053L160.817 112.563L112.304 183.221L124.67 191.711ZM97.3301 194.966H118.487V179.966H97.3301V194.966ZM89.8301 57.5049V187.466H104.83V57.5049H89.8301Z" fill="#FF002E"/>
<path fill-rule="evenodd" clip-rule="evenodd" d="M98.6699 57.5049H42.1095L29 116.808L77.5126 187.466H98.6699V57.5049Z" fill="#E04242"/>
<path d="M42.1095 57.5049V50.0049H36.0864L34.7863 55.886L42.1095 57.5049ZM98.6699 57.5049H106.17V50.0049H98.6699V57.5049ZM29 116.808L21.6768 115.189L20.9739 118.368L22.817 121.053L29 116.808ZM77.5126 187.466L71.3296 191.711L73.5644 194.966H77.5126V187.466ZM98.6699 187.466V194.966H106.17V187.466H98.6699ZM42.1095 65.0049H98.6699V50.0049H42.1095V65.0049ZM36.3232 118.427L49.4327 59.1237L34.7863 55.886L21.6768 115.189L36.3232 118.427ZM83.6955 183.221L35.183 112.563L22.817 121.053L71.3296 191.711L83.6955 183.221ZM77.5126 194.966H98.6699V179.966H77.5126V194.966ZM91.1699 57.5049V187.466H106.17V57.5049H91.1699Z" fill="#FF002E"/>
<rect x="71.2515" y="86.6694" width="3.34951" height="3.34951" transform="rotate(45 71.2515 86.6694)" fill="#393131" stroke="#FF002E" stroke-width="3.34951"/>
<rect x="99.3874" y="105.427" width="3.34951" height="3.34951" transform="rotate(45 99.3874 105.427)" fill="#393131" stroke="#FF002E" stroke-width="3.34951"/>
<rect x="114.125" y="130.883" width="3.34951" height="3.34951" transform="rotate(45 114.125 130.883)" fill="#393131" stroke="#FF002E" stroke-width="3.34951"/>
<rect x="119.484" y="92.0287" width="3.34951" height="3.34951" transform="rotate(45 119.484 92.0287)" fill="#393131" stroke="#FF002E" stroke-width="3.34951"/>
<rect x="61.8728" y="113.466" width="3.34951" height="3.34951" transform="rotate(45 61.8728 113.466)" fill="#393131" stroke="#FF002E" stroke-width="3.34951"/>
<rect x="143.601" y="109.446" width="3.34951" height="3.34951" transform="rotate(45 143.601 109.446)" fill="#393131" stroke="#FF002E" stroke-width="3.34951"/>
</g>
<path d="M59.1456 33.3884V57.5049H98L59.1456 33.3884Z" fill="#46B157"/>
<path d="M133.505 33.3884V57.5049H94.6505L133.505 33.3884Z" fill="#46B157"/>
<path d="M114.748 57.5049H80.5825L98 22L114.748 57.5049Z" fill="#518158"/>
<path fill-rule="evenodd" clip-rule="evenodd" d="M97.3301 57.5049H154.44L167 116.808L118.487 187.466H97.3301V57.5049Z" fill="#C73939"/>
<path fill-rule="evenodd" clip-rule="evenodd" d="M98.6699 57.5049H42.1095L29 116.808L77.5126 187.466H98.6699V57.5049Z" fill="#E04242"/>
<rect x="71.2515" y="84.301" width="6.69903" height="6.69903" transform="rotate(45 71.2515 84.301)" fill="#393131"/>
<rect x="99.3874" y="103.058" width="6.69903" height="6.69903" transform="rotate(45 99.3874 103.058)" fill="#393131"/>
<rect x="114.125" y="128.515" width="6.69903" height="6.69903" transform="rotate(45 114.125 128.515)" fill="#393131"/>
<rect x="119.484" y="89.6602" width="6.69903" height="6.69903" transform="rotate(45 119.484 89.6602)" fill="#393131"/>
<rect x="61.8728" y="111.097" width="6.69903" height="6.69903" transform="rotate(45 61.8728 111.097)" fill="#393131"/>
<rect x="143.601" y="107.078" width="6.69903" height="6.69903" transform="rotate(45 143.601 107.078)" fill="#393131"/>
</g>
<defs>
<filter id="filter0_d_20_487" x="8.97394" y="-4.29915" width="180.03" height="216.265" filterUnits="userSpaceOnUse" color-interpolation-filters="sRGB">
<feFlood flood-opacity="0" result="BackgroundImageFix"/>
<feColorMatrix in="SourceAlpha" type="matrix" values="0 0 0 0 0 0 0 0 0 0 0 0 0 0 0 0 0 0 127 0" result="hardAlpha"/>
<feOffset dx="1" dy="4"/>
<feGaussianBlur stdDeviation="6.5"/>
<feComposite in2="hardAlpha" operator="out"/>
<feColorMatrix type="matrix" values="0 0 0 0 0 0 0 0 0 0 0 0 0 0 0 0 0 0 0.25 0"/>
<feBlend mode="normal" in2="BackgroundImageFix" result="effect1_dropShadow_20_487"/>
<feBlend mode="normal" in="SourceGraphic" in2="effect1_dropShadow_20_487" result="shape"/>
</filter>
<clipPath id="clip0_20_487">
<rect width="196" height="210" fill="white"/>
</clipPath>
</defs>
</svg>
