<svg width="196" height="210" viewBox="0 0 196 210" fill="none" xmlns="http://www.w3.org/2000/svg">
<g clip-path="url(#clip0_20_405)">
<g filter="url(#filter0_d_20_405)">
<path fill-rule="evenodd" clip-rule="evenodd" d="M86 24.7402L87.1817 32.8653L96.0338 32.8651L93 43H64.1061L23.2207 95.4172L38.7141 160.079L98.9289 188.282L99.4414 188.028L158.522 158.789L172.619 93.8077L131.198 43H101.211L104.244 32.8649L120.462 32.8646L119.281 24.7396L86 24.7402Z" fill="#BC7C1B"/>
<path d="M87.1817 32.8653L79.7598 33.9448L80.6937 40.3654L87.1819 40.3653L87.1817 32.8653ZM86 24.7402L85.9998 17.2402L77.3303 17.2404L78.5781 25.8197L86 24.7402ZM96.0338 32.8651L103.219 35.0159L106.108 25.3649L96.0337 25.3651L96.0338 32.8651ZM93 43V50.5H98.5837L100.185 45.1508L93 43ZM64.1061 43V35.5H60.4444L58.1923 38.3873L64.1061 43ZM23.2207 95.4172L17.3069 90.8045L15.0856 93.6524L15.9271 97.1648L23.2207 95.4172ZM38.7141 160.079L31.4205 161.827L32.2621 165.339L35.5329 166.871L38.7141 160.079ZM98.9289 188.282L95.7477 195.074L99.0185 196.606L102.256 195.004L98.9289 188.282ZM99.4414 188.028L102.768 194.75L102.768 194.75L99.4414 188.028ZM158.522 158.789L161.849 165.51L165.086 163.908L165.852 160.379L158.522 158.789ZM172.619 93.8077L179.948 95.3978L180.714 91.8681L178.432 89.0687L172.619 93.8077ZM131.198 43L137.011 38.2609L134.76 35.5H131.198V43ZM101.211 43L94.0255 40.8492L91.1366 50.5H101.211V43ZM104.244 32.8649L104.244 25.3649L98.6606 25.3651L97.0594 30.7142L104.244 32.8649ZM120.462 32.8646L120.463 40.3646L129.132 40.3645L127.884 31.7851L120.462 32.8646ZM119.281 24.7396L126.703 23.6601L125.769 17.2395L119.28 17.2396L119.281 24.7396ZM94.6036 31.7858L93.4219 23.6608L78.5781 25.8197L79.7598 33.9448L94.6036 31.7858ZM96.0337 25.3651L87.1816 25.3653L87.1819 40.3653L96.0339 40.3651L96.0337 25.3651ZM100.185 45.1508L103.219 35.0159L88.8488 30.7143L85.815 40.8492L100.185 45.1508ZM64.1061 50.5H93V35.5H64.1061V50.5ZM29.1345 100.03L70.0199 47.6127L58.1923 38.3873L17.3069 90.8045L29.1345 100.03ZM46.0076 158.332L30.5143 93.6696L15.9271 97.1648L31.4205 161.827L46.0076 158.332ZM102.11 181.49L41.8952 153.287L35.5329 166.871L95.7477 195.074L102.11 181.49ZM96.1147 181.307L95.6022 181.56L102.256 195.004L102.768 194.75L96.1147 181.307ZM155.195 152.067L96.1147 181.307L102.768 194.75L161.849 165.51L155.195 152.067ZM165.289 92.2177L151.193 157.199L165.852 160.379L179.948 95.3978L165.289 92.2177ZM125.385 47.7391L166.806 98.5468L178.432 89.0687L137.011 38.2609L125.385 47.7391ZM101.211 50.5H131.198V35.5H101.211V50.5ZM97.0594 30.7142L94.0255 40.8492L108.396 45.1508L111.429 35.0157L97.0594 30.7142ZM120.462 25.3646L104.244 25.3649L104.245 40.3649L120.463 40.3646L120.462 25.3646ZM111.859 25.8191L113.04 33.9441L127.884 31.7851L126.703 23.6601L111.859 25.8191ZM86.0001 32.2402L119.281 32.2396L119.28 17.2396L85.9998 17.2402L86.0001 32.2402Z" fill="#14FF00"/>
</g>
<path d="M97.7895 27H106L101.211 43H93L97.7895 27Z" fill="#815513"/>
<path d="M97.7895 27H106L101.211 43H93L97.7895 27Z" stroke="black"/>
<path fill-rule="evenodd" clip-rule="evenodd" d="M64.1061 43L23.2207 95.4172L38.7141 160.079L98.9289 188.282L158.522 158.789L172.619 93.8078L131.198 43H64.1061Z" fill="#5BC980"/>
<path fill-rule="evenodd" clip-rule="evenodd" d="M99.4414 43V188.028L158.522 158.789L172.619 93.8077L131.198 43H99.4414Z" fill="#35AA5D"/>
<path d="M87.1817 32.8653L86 24.7403L119.281 24.7396L120.462 32.8646L87.1817 32.8653Z" fill="#BC7C1B"/>
<path d="M87.1817 32.8653L86 24.7403L119.281 24.7396L120.462 32.8646L87.1817 32.8653Z" stroke="black"/>
</g>
<defs>
<filter id="filter0_d_20_405" x="4.08557" y="9.23947" width="189.628" height="203.367" filterUnits="userSpaceOnUse" color-interpolation-filters="sRGB">
<feFlood flood-opacity="0" result="BackgroundImageFix"/>
<feColorMatrix in="SourceAlpha" type="matrix" values="0 0 0 0 0 0 0 0 0 0 0 0 0 0 0 0 0 0 127 0" result="hardAlpha"/>
<feOffset dx="1" dy="4"/>
<feGaussianBlur stdDeviation="6"/>
<feComposite in2="hardAlpha" operator="out"/>
<feColorMatrix type="matrix" values="0 0 0 0 0 0 0 0 0 0 0 0 0 0 0 0 0 0 0.25 0"/>
<feBlend mode="normal" in2="BackgroundImageFix" result="effect1_dropShadow_20_405"/>
<feBlend mode="normal" in="SourceGraphic" in2="effect1_dropShadow_20_405" result="shape"/>
</filter>
<clipPath id="clip0_20_405">
<rect width="196" height="210" fill="white"/>
</clipPath>
</defs>
</svg>
