<svg width="196" height="210" viewBox="0 0 196 210" fill="none" xmlns="http://www.w3.org/2000/svg">
<g clip-path="url(#clip0_20_545)">
<g filter="url(#filter0_d_20_545)">
<path fill-rule="evenodd" clip-rule="evenodd" d="M105 22H96.7895L92 38H96.177L94 43H86.5H63.6647L22.7793 95.4172L38.2727 160.079L86.5 182.668V182.668L86.5376 182.685L98.4875 188.282L99 188.028L150.96 162.313L152.5 161.551V161.55L158.081 158.789L172.177 93.8077L152.5 69.6711V69.668L139.084 53.2151L130.756 43H109.5H102.211L107 32H102.007L105 22Z" fill="#BC7C1B"/>
<path d="M96.7895 22V14.5H91.2057L89.6045 19.8492L96.7895 22ZM105 22L112.185 24.1508L115.074 14.5H105V22ZM92 38L84.815 35.8492L81.9261 45.5H92V38ZM96.177 38L103.053 40.9941L107.623 30.5H96.177V38ZM94 43V50.5H98.9145L100.876 45.9941L94 43ZM63.6647 43V35.5H60.003L57.7509 38.3873L63.6647 43ZM22.7793 95.4172L16.8655 90.8045L14.6442 93.6524L15.4857 97.1648L22.7793 95.4172ZM38.2727 160.079L30.9791 161.827L31.8207 165.339L35.0915 166.871L38.2727 160.079ZM86.5 182.668H94V177.898L89.6811 175.876L86.5 182.668ZM86.5 182.668H79V187.544L83.4558 189.523L86.5 182.668ZM86.5376 182.685L89.7187 175.893L89.6506 175.861L89.5818 175.831L86.5376 182.685ZM98.4875 188.282L95.3063 195.074L98.5771 196.606L101.814 195.004L98.4875 188.282ZM99 188.028L102.327 194.75L102.327 194.75L99 188.028ZM150.96 162.313L147.634 155.59L147.633 155.591L150.96 162.313ZM152.5 161.551L155.826 168.273L160 166.208V161.551H152.5ZM152.5 161.55L149.173 154.829L145 156.894V161.55H152.5ZM158.081 158.789L161.407 165.51L164.644 163.908L165.41 160.379L158.081 158.789ZM172.177 93.8077L179.507 95.3978L180.273 91.8681L177.99 89.0687L172.177 93.8077ZM152.5 69.6711H145V72.3409L146.687 74.4102L152.5 69.6711ZM152.5 69.668H160V66.9978L158.313 64.9284L152.5 69.668ZM139.084 53.2151L133.271 57.9542L133.272 57.9547L139.084 53.2151ZM130.756 43L136.569 38.2609L134.319 35.5H130.756V43ZM102.211 43L95.3341 40.0059L90.7649 50.5H102.211V43ZM107 32L113.876 34.9941L118.446 24.5H107V32ZM102.007 32L94.8216 29.8492L91.9327 39.5H102.007V32ZM96.7895 29.5H105V14.5H96.7895V29.5ZM99.185 40.1508L103.974 24.1508L89.6045 19.8492L84.815 35.8492L99.185 40.1508ZM96.177 30.5H92V45.5H96.177V30.5ZM100.876 45.9941L103.053 40.9941L89.3006 35.0059L87.1235 40.0059L100.876 45.9941ZM94 35.5H86.5V50.5H94V35.5ZM86.5 35.5H63.6647V50.5H86.5V35.5ZM57.7509 38.3873L16.8655 90.8045L28.6931 100.03L69.5785 47.6127L57.7509 38.3873ZM15.4857 97.1648L30.9791 161.827L45.5662 158.332L30.0729 93.6697L15.4857 97.1648ZM35.0915 166.871L83.3189 189.459L89.6811 175.876L41.4538 153.287L35.0915 166.871ZM79 182.668V182.668H94V182.668H79ZM83.4558 189.523L83.4934 189.54L89.5818 175.831L89.5442 175.814L83.4558 189.523ZM83.3564 189.477L95.3063 195.074L101.669 181.49L89.7187 175.893L83.3564 189.477ZM101.814 195.004L102.327 194.75L95.6733 181.307L95.1608 181.56L101.814 195.004ZM102.327 194.75L154.287 169.034L147.633 155.591L95.6733 181.307L102.327 194.75ZM154.286 169.035L155.826 168.273L149.174 154.828L147.634 155.59L154.286 169.035ZM160 161.551V161.55H145V161.551H160ZM155.827 168.272L161.407 165.51L154.754 152.067L149.173 154.829L155.827 168.272ZM165.41 160.379L179.507 95.3978L164.848 92.2177L150.751 157.199L165.41 160.379ZM177.99 89.0687L158.313 64.9321L146.687 74.4102L166.364 98.5468L177.99 89.0687ZM160 69.6711V69.668H145V69.6711H160ZM158.313 64.9284L144.897 48.4755L133.272 57.9547L146.687 74.4076L158.313 64.9284ZM144.897 48.476L136.569 38.2609L124.943 47.7391L133.271 57.9542L144.897 48.476ZM130.756 35.5H109.5V50.5H130.756V35.5ZM109.5 35.5H102.211V50.5H109.5V35.5ZM100.124 29.0059L95.3341 40.0059L109.087 45.9941L113.876 34.9941L100.124 29.0059ZM102.007 39.5H107V24.5H102.007V39.5ZM97.815 19.8492L94.8216 29.8492L109.192 34.1508L112.185 24.1508L97.815 19.8492Z" fill="#FF002E"/>
</g>
<path d="M97.0102 22H105.221L100.431 38H92.2207L97.0102 22Z" fill="#815513"/>
<path d="M97.0102 22H105.221L100.431 38H92.2207L97.0102 22Z" stroke="black"/>
<path fill-rule="evenodd" clip-rule="evenodd" d="M63.8854 43L23 95.4172L38.4934 160.079L98.7082 188.282L158.301 158.789L172.398 93.8077L130.977 43H63.8854Z" fill="#348A41"/>
<path fill-rule="evenodd" clip-rule="evenodd" d="M99.2207 43V188.028L158.301 158.789L172.398 93.8077L130.977 43H99.2207Z" fill="#3B6742"/>
<path fill-rule="evenodd" clip-rule="evenodd" d="M86.7207 43V182.668L98.7207 188L109.721 182.824V43H86.7207Z" fill="#111111"/>
<path d="M152.721 69.668L131.221 43.3008V172.188L152.721 161.551V69.668Z" fill="#111111"/>
<path d="M42.2207 70.7666L63.7207 43.2109V171.91L42.2207 161.793V70.7666Z" fill="#242424"/>
<path d="M99.0102 32H107.221L102.431 43H94.2207L99.0102 32Z" fill="#BC7C1B"/>
<path d="M99.0102 32H107.221L102.431 43H94.2207L99.0102 32Z" stroke="black"/>
</g>
<defs>
<filter id="filter0_d_20_545" x="3.64417" y="6.5" width="189.628" height="206.106" filterUnits="userSpaceOnUse" color-interpolation-filters="sRGB">
<feFlood flood-opacity="0" result="BackgroundImageFix"/>
<feColorMatrix in="SourceAlpha" type="matrix" values="0 0 0 0 0 0 0 0 0 0 0 0 0 0 0 0 0 0 127 0" result="hardAlpha"/>
<feOffset dx="1" dy="4"/>
<feGaussianBlur stdDeviation="6"/>
<feComposite in2="hardAlpha" operator="out"/>
<feColorMatrix type="matrix" values="0 0 0 0 0 0 0 0 0 0 0 0 0 0 0 0 0 0 0.25 0"/>
<feBlend mode="normal" in2="BackgroundImageFix" result="effect1_dropShadow_20_545"/>
<feBlend mode="normal" in="SourceGraphic" in2="effect1_dropShadow_20_545" result="shape"/>
</filter>
<clipPath id="clip0_20_545">
<rect width="196" height="210" fill="white"/>
</clipPath>
</defs>
</svg>
