<svg width="196" height="210" viewBox="0 0 196 210" fill="none" xmlns="http://www.w3.org/2000/svg">
<g filter="url(#filter0_d_20_392)">
<path fill-rule="evenodd" clip-rule="evenodd" d="M101.492 35.748H94.4723L93.8384 40.289L55.6559 49.2381L33.3407 105.421L55.6559 161.604L97.1756 175.095L139.344 161.604L163.09 105.421L139.344 49.2381L100.849 40.3545L101.492 35.748Z" fill="#815513"/>
<path d="M94.4723 35.748V28.248H87.9465L87.0443 34.7112L94.4723 35.748ZM101.492 35.748L108.92 36.7849L110.111 28.248H101.492V35.748ZM93.8384 40.289L95.5499 47.5912L100.556 46.4179L101.266 41.3259L93.8384 40.289ZM55.6559 49.2381L53.9445 41.936L50.1313 42.8297L48.6856 46.4696L55.6559 49.2381ZM33.3407 105.421L26.3704 102.653L25.2708 105.421L26.3704 108.19L33.3407 105.421ZM55.6559 161.604L48.6856 164.373L49.9865 167.648L53.3382 168.737L55.6559 161.604ZM97.1756 175.095L94.858 182.228L97.1578 182.975L99.461 182.238L97.1756 175.095ZM139.344 161.604L141.629 168.747L144.911 167.698L146.252 164.524L139.344 161.604ZM163.09 105.421L169.998 108.341L171.232 105.421L169.998 102.501L163.09 105.421ZM139.344 49.2381L146.252 46.3183L144.762 42.7912L141.031 41.9301L139.344 49.2381ZM100.849 40.3545L93.4207 39.3176L92.4714 46.1184L99.1622 47.6624L100.849 40.3545ZM94.4723 43.248H101.492V28.248H94.4723V43.248ZM101.266 41.3259L101.9 36.7849L87.0443 34.7112L86.4105 39.2522L101.266 41.3259ZM57.3674 56.5402L95.5499 47.5912L92.127 32.9869L53.9445 41.936L57.3674 56.5402ZM40.311 108.19L62.6262 52.0066L48.6856 46.4696L26.3704 102.653L40.311 108.19ZM62.6262 158.836L40.311 102.653L26.3704 108.19L48.6856 164.373L62.6262 158.836ZM99.4933 167.962L57.9735 154.471L53.3382 168.737L94.858 182.228L99.4933 167.962ZM137.059 154.461L94.8903 167.951L99.461 182.238L141.629 168.747L137.059 154.461ZM156.181 102.501L132.436 158.684L146.252 164.524L169.998 108.341L156.181 102.501ZM132.436 52.1579L156.182 108.341L169.998 102.501L146.252 46.3183L132.436 52.1579ZM99.1622 47.6624L137.658 56.546L141.031 41.9301L102.535 33.0466L99.1622 47.6624ZM94.0637 34.7112L93.4207 39.3176L108.277 41.3914L108.92 36.7849L94.0637 34.7112Z" fill="#14FF00"/>
</g>
<path d="M55.6559 49.2381L97.1757 39.5069L139.344 49.238L163.09 105.421L139.344 161.604L97.1756 175.095L55.6559 161.604L33.3407 105.421L55.6559 49.2381Z" fill="#FFE600"/>
<path fill-rule="evenodd" clip-rule="evenodd" d="M97.1171 174.817L97.1756 174.836L139.344 161.345L163.09 105.162L139.344 48.9789L97.1756 39.2477L97.1171 39.2614V174.817Z" fill="#F5DD00"/>
<path d="M70.8021 45.8096L73.4942 45.3722L65.7851 106.573L72.1482 166.987L69.4561 166.112L55.9957 106.573L70.8021 45.8096Z" fill="#FFC700"/>
<path d="M124.24 45.3722L121.615 44.9347L129.967 106.245L122.172 167.096L124.24 166.549L139.988 106.573L124.24 45.3722Z" fill="#FFC700"/>
<path d="M99.3044 41.8725H96.2422L90.9927 107.571L96.2422 174.861L97.1171 175.298L99.3044 174.423L103.242 107.571L99.3044 41.8725Z" fill="#FFC700"/>
<path d="M94.4724 35.748H101.492L100.637 41.8725H93.6174L94.4724 35.748Z" fill="#815513"/>
<path d="M94.4724 35.748H101.492L100.637 41.8725H93.6174L94.4724 35.748Z" stroke="black"/>
<defs>
<filter id="filter0_d_20_392" x="14.2708" y="20.248" width="169.961" height="178.727" filterUnits="userSpaceOnUse" color-interpolation-filters="sRGB">
<feFlood flood-opacity="0" result="BackgroundImageFix"/>
<feColorMatrix in="SourceAlpha" type="matrix" values="0 0 0 0 0 0 0 0 0 0 0 0 0 0 0 0 0 0 127 0" result="hardAlpha"/>
<feOffset dx="1" dy="4"/>
<feGaussianBlur stdDeviation="6"/>
<feComposite in2="hardAlpha" operator="out"/>
<feColorMatrix type="matrix" values="0 0 0 0 0 0 0 0 0 0 0 0 0 0 0 0 0 0 0.25 0"/>
<feBlend mode="normal" in2="BackgroundImageFix" result="effect1_dropShadow_20_392"/>
<feBlend mode="normal" in="SourceGraphic" in2="effect1_dropShadow_20_392" result="shape"/>
</filter>
</defs>
</svg>
